<?xml version="1.0" standalone="no"?>
<!DOCTYPE svg PUBLIC "-//W3C//DTD SVG 20010904//EN"
 "http://www.w3.org/TR/2001/REC-SVG-20010904/DTD/svg10.dtd">
<svg version="1.0" xmlns="http://www.w3.org/2000/svg"
 width="50pt" height="50pt" viewBox="0 0 512.000000 512.000000"
 preserveAspectRatio="xMidYMid meet">

<g transform="translate(0.000000,512.000000) scale(0.100000,-0.100000)"
fill="#000000" stroke="none">
<path d="M3504 5110 c-60 -19 -126 -73 -158 -130 -27 -47 -31 -65 -31 -125 1
-83 22 -132 93 -207 l46 -49 -725 -725 -724 -724 -415 0 c-446 0 -479 -3 -555
-52 -103 -66 -159 -168 -158 -288 0 -138 2 -141 377 -517 l330 -333 -665 -667
c-704 -707 -719 -723 -813 -911 -41 -81 -106 -267 -106 -302 0 -28 52 -80 80
-80 35 0 221 65 302 106 188 94 204 109 911 813 l667 665 333 -330 c376 -375
379 -377 517 -377 120 -1 222 55 288 158 49 76 52 109 52 555 l0 415 724 724
725 725 49 -46 c27 -25 68 -56 91 -68 205 -104 438 100 366 321 -16 51 -53 90
-694 732 -493 494 -688 683 -721 699 -50 24 -137 33 -186 18z m114 -174 c48
-26 1320 -1308 1328 -1339 15 -62 -50 -126 -113 -111 -15 4 -67 45 -115 91
-73 70 -92 83 -120 83 -30 0 -93 -60 -825 -793 l-793 -792 0 -447 c0 -292 -4
-456 -11 -475 -13 -35 -46 -71 -83 -90 -38 -20 -114 -20 -152 0 -16 9 -399
386 -851 839 -900 901 -861 858 -834 948 15 50 56 99 98 116 26 11 125 14 480
14 l448 0 792 793 c736 736 793 795 793 826 0 28 -12 46 -79 115 -44 44 -85
94 -91 110 -16 43 4 94 44 112 40 17 51 17 84 0z m-2400 -3854 c-343 -343
-658 -651 -700 -686 -77 -62 -189 -131 -261 -161 l-37 -15 15 37 c24 56 72
140 123 213 27 39 309 330 696 717 l651 653 67 -67 68 -68 -622 -623z"/>
</g>
</svg>
